<?xml version="1.0" standalone="no"?>
<!DOCTYPE svg PUBLIC "-//W3C//DTD SVG 20010904//EN"
 "http://www.w3.org/TR/2001/REC-SVG-20010904/DTD/svg10.dtd">
<svg version="1.0" xmlns="http://www.w3.org/2000/svg"
 width="267.000000pt" height="267.000000pt" viewBox="0 0 267.000000 267.000000"
 preserveAspectRatio="xMidYMid meet">
<metadata>
Created by potrace 1.11, written by Peter Selinger 2001-2013
</metadata>
<g transform="translate(0.000000,267.000000) scale(0.100000,-0.100000)"
fill="#000000" stroke="none">
<path d="M665 2000 l-660 -660 662 -662 663 -663 662 663 663 662 -660 660
c-363 363 -662 660 -665 660 -3 0 -302 -297 -665 -660z m239 -376 c14 -13 16
-51 16 -260 l0 -244 163 0 c178 0 202 -6 195 -51 l-3 -24 -270 0 -270 0 -3
284 c-2 201 1 288 9 297 17 21 143 19 163 -2z m647 -5 l11 -21 22 21 c22 20
32 21 182 19 l159 -3 0 -295 0 -295 -162 -3 c-151 -2 -164 -1 -183 18 l-20 20
-10 -21 c-10 -18 -19 -20 -88 -17 l-77 3 -3 285 c-1 157 0 290 3 297 3 9 28
13 79 13 66 0 77 -3 87 -21z m509 -547 c0 -5 -7 -32 -15 -60 -14 -47 -19 -52
-44 -52 -32 0 -31 -4 -10 83 9 32 13 37 39 37 17 0 30 -4 30 -8z"/>
<path d="M1562 1343 l3 -218 90 0 90 0 0 215 0 215 -93 3 -92 3 2 -218z"/>
</g>
</svg>
